<?xml version="1.0" encoding="UTF-8"?>
<svg version="1.1" xmlns="http://www.w3.org/2000/svg" width="1024" height="1024">
<path d="M0 0 C2.21682158 0.92728004 4.4343277 1.85292448 6.65234375 2.77734375 C9.08240942 3.82707943 11.51080588 4.88005608 13.9375 5.9375 C21.91722769 9.40155963 29.89760722 12.83186828 38 16 C39.05372803 16.41386963 40.10745605 16.82773926 41.19311523 17.25415039 C95.48491014 38.5184682 150.18118606 55.88183154 206.75 70.0625 C207.85683136 70.34044403 208.96366272 70.61838806 210.10403442 70.90475464 C221.11717679 73.66248122 232.09546814 76.37651831 243.27832031 78.35717773 C246 79 246 79 249 81 C249.34553528 82.87464905 249.34553528 82.87464905 249.30395508 85.18383789 C249.29595383 86.04875351 249.28795258 86.91366913 249.27970886 87.80479431 C249.25572525 88.74706375 249.23174164 89.68933319 249.20703125 90.66015625 C249.19380325 91.64331314 249.18057526 92.62647003 249.16694641 93.63941956 C249.13762529 95.71961107 249.10185499 97.79972023 249.06011963 99.87969971 C249.00322683 102.83252282 248.9682637 105.78454999 248.94287109 108.73779297 C248.06066492 204.70995867 239.25505966 301.94856059 197.20849609 396.30419922 C196.40795799 398.08996522 195.62413955 399.8833283 194.85791016 401.68408203 C194.50905762 402.50118652 194.16020508 403.31829102 193.80078125 404.16015625 C193.49954346 404.87953369 193.19830566 405.59891113 192.88793945 406.34008789 C192 408 192 408 190 409 C189.57847656 410.27810547 189.57847656 410.27810547 189.1484375 411.58203125 C187.7807828 415.65243216 185.83276338 419.02350656 183.625 422.6875 C183.18655762 423.42154053 182.74811523 424.15558105 182.29638672 424.91186523 C180.87384135 427.28052569 179.43886473 429.64122108 178 432 C177.52175781 432.78729492 177.04351563 433.57458984 176.55078125 434.38574219 C170.04047372 445.0544432 163.13217857 455.26069636 155.45703125 465.12548828 C154.0231468 466.970221 152.60432805 468.82574325 151.1875 470.68359375 C145.98994691 477.4517098 140.54635835 483.86629955 134.703125 490.0859375 C132.73744948 492.20500388 130.85343969 494.33827726 128.98046875 496.53515625 C124.17840405 502.047817 118.97947517 507.16988688 113.80297852 512.32739258 C112.066064 514.058947 110.33456111 515.79578359 108.60351562 517.53320312 C102.90446359 523.23598346 97.16375277 528.79515043 91 534 C89.91639998 534.94873204 88.834322 535.8992058 87.75390625 536.8515625 C79.46998922 544.076478 70.8840979 550.82133365 62.09521484 557.41943359 C60.1217445 558.90815965 58.16248923 560.41351265 56.20703125 561.92578125 C44.54800703 570.88854232 32.30293748 578.95431883 20 587 C19.26378418 587.48162598 18.52756836 587.96325195 17.76904297 588.45947266 C13.86612344 591.00536213 9.93686156 593.50681859 6 596 C4.80288861 596.78309522 3.60628808 597.56697187 2.41015625 598.3515625 C1.23211757 599.10991389 0.0537435 599.8677446 -1.125 600.625 C-2.15882813 601.29789063 -3.19265625 601.97078125 -4.2578125 602.6640625 C-7 604 -7 604 -8.90112305 603.72998047 C-13.12533207 602.26081856 -16.85664241 599.77592671 -20.6875 597.5 C-21.6463208 596.93192627 -22.6051416 596.36385254 -23.59301758 595.77856445 C-38.38222708 586.89360656 -52.5747292 577.02392514 -66.49023438 566.83447266 C-69.08671727 564.93661541 -71.69836891 563.0609479 -74.3125 561.1875 C-89.92999659 549.8011266 -104.5687946 537.32021057 -118.609375 524.046875 C-120.90273408 521.82308968 -120.90273408 521.82308968 -124 521 C-125.5078125 519.46875 -125.5078125 519.46875 -127.125 517.5 C-133.72020822 509.23932228 -133.72020822 509.23932228 -142 503 C-142.59941406 501.95199219 -142.59941406 501.95199219 -143.2109375 500.8828125 C-145.57195593 497.0783767 -148.52904817 494.09038998 -151.625 490.875 C-157.37973281 484.7943888 -162.84483734 478.60343578 -168 472 C-168.48823242 471.37899414 -168.97646484 470.75798828 -169.47949219 470.11816406 C-177.12695381 460.36939384 -184.31970079 450.43440478 -191 440 C-191.40814941 439.36771484 -191.81629883 438.73542969 -192.23681641 438.08398438 C-199.34046984 427.05295018 -206.12873188 415.74253625 -212 404 C-214.01669827 402.86649466 -214.01669827 402.86649466 -216 402 C-215.34 401.67 -214.68 401.34 -214 401 C-214.7631861 399.39218107 -215.53587058 397.78886862 -216.3125 396.1875 C-216.74175781 395.29417969 -217.17101562 394.40085937 -217.61328125 393.48046875 C-218.84208403 390.99143282 -218.84208403 390.99143282 -220.66796875 389.42578125 C-222 388 -222 388 -222 384 C-222.71089853 381.99075058 -222.71089853 381.99075058 -223.75 379.99609375 C-224.1109375 379.25552734 -224.471875 378.51496094 -224.84375 377.75195312 C-225.2253125 376.98818359 -225.606875 376.22441406 -226 375.4375 C-226.75529265 373.91798388 -227.50552462 372.39593887 -228.25 370.87109375 C-228.58515625 370.20005615 -228.9203125 369.52901855 -229.265625 368.83764648 C-230 367 -230 367 -230 364 C-230.66 364 -231.32 364 -232 364 C-232 363.34 -232 362.68 -232 362 C-206.755 361.505 -206.755 361.505 -181 361 C-178.36 366.28 -175.72 371.56 -173 377 C-158.44730789 405.62430349 -140.82546266 432.05070208 -119.08203125 455.73046875 C-117.60352175 457.34212732 -116.1444693 458.97173181 -114.69921875 460.61328125 C-110.93287067 464.88602907 -107.20025461 468.83029137 -102.77978516 472.4206543 C-100.92043297 474.07060619 -99.37393077 475.81404928 -97.7734375 477.71484375 C-94.16209198 481.89108716 -90.29703153 485.6870373 -86.25 489.4375 C-85.5475415 490.09145752 -84.84508301 490.74541504 -84.12133789 491.41918945 C-78.59818489 496.52385472 -72.90078151 501.3367435 -67 506 C-65.8737454 506.91642905 -64.7488248 507.83449913 -63.625 508.75390625 C-50.6604083 519.3173893 -37.22563531 529.19750874 -23 538 C-20.43194832 539.63722789 -17.87213716 541.28715692 -15.3125 542.9375 C-14.10030926 543.71752382 -12.888074 544.49747848 -11.67578125 545.27734375 C-10.79277344 545.84582031 -9.90976562 546.41429687 -9 547 C31.45518118 525.12788985 72.36563598 491.23558447 102 456 C102.78246094 455.10667969 103.56492187 454.21335937 104.37109375 453.29296875 C115.85017572 440.11320322 126.11008535 426.04447094 135 411 C136.27063648 408.99987493 137.5414769 406.99987941 138.8125 405 C170.35572391 353.43422185 192.8662885 281.08595527 192 220 C192.66 220 193.32 220 194 220 C193.98404785 219.45577393 193.9680957 218.91154785 193.95166016 218.35083008 C193.83807836 211.11920957 194.4675894 204.02174207 195.16802979 196.82888794 C196.90045001 178.90464809 197.9293954 160.96690726 198.8046875 142.98339844 C199.06289472 137.71726209 199.34314475 132.45241161 199.625 127.1875 C199.75076216 124.79170559 199.87545471 122.39585803 200 120 C199.33600189 119.88974991 198.67200378 119.77949982 197.98788452 119.66590881 C191.13840914 118.48123178 184.48609384 116.91060273 177.7890625 115.05859375 C176.23008743 114.63268196 176.23008743 114.63268196 174.63961792 114.19816589 C171.29989314 113.28337172 167.96235787 112.36088841 164.625 111.4375 C162.92355835 110.9695401 162.92355835 110.9695401 161.18774414 110.49212646 C146.37056424 106.41522716 131.61160935 102.21484516 116.98681641 97.48999023 C115.94960449 97.15555908 114.91239258 96.82112793 113.84375 96.4765625 C112.96912109 96.18861816 112.09449219 95.90067383 111.19335938 95.60400391 C108.89711141 94.86725216 108.89711141 94.86725216 106 95 C106 94.34 106 93.68 106 93 C104.95199219 92.92652344 104.95199219 92.92652344 103.8828125 92.8515625 C102.51769531 92.73941406 102.51769531 92.73941406 101.125 92.625 C100.22007812 92.55539062 99.31515625 92.48578125 98.3828125 92.4140625 C96 92 96 92 94 90 C91.3910879 88.98784306 88.79453582 88.05574396 86.14453125 87.1640625 C84.48655088 86.59397494 82.82859285 86.02382242 81.1706543 85.45361328 C80.29597504 85.15521545 79.42129578 84.85681763 78.52011108 84.54937744 C62.95522161 79.23552982 47.5329966 73.6578482 32.2590332 67.55712891 C31.07398193 67.08710449 29.88893066 66.61708008 28.66796875 66.1328125 C27.63953857 65.71918457 26.6111084 65.30555664 25.55151367 64.87939453 C22.97708961 63.83707715 22.97708961 63.83707715 20 64 C20 63.34 20 62.68 20 62 C19.27474121 61.87834473 18.54948242 61.75668945 17.80224609 61.63134766 C15.01394361 61.0031415 12.74803551 60.10628149 10.1640625 58.8984375 C9.26429688 58.49109375 8.36453125 58.08375 7.4375 57.6640625 C5.56597345 56.8062795 3.6987224 55.93910466 1.8359375 55.0625 C0.93359375 54.65773438 0.03125 54.25296875 -0.8984375 53.8359375 C-1.70974121 53.46001465 -2.52104492 53.0840918 -3.35693359 52.69677734 C-9.2728291 51.13720171 -14.51977826 53.40286882 -19.9375 55.73046875 C-20.58009766 56.00337234 -21.22269531 56.27627594 -21.88476562 56.55744934 C-23.92661142 57.42634256 -25.96339841 58.30639469 -28 59.1875 C-30.66544267 60.32969371 -33.33267847 61.46767067 -36 62.60546875 C-36.99117073 63.02918259 -36.99117073 63.02918259 -38.00236511 63.4614563 C-47.94480549 67.69950097 -57.95219438 71.76887573 -68.1875 75.25 C-73.87440297 77.20884062 -79.55041553 79.19032556 -85.203125 81.24609375 C-117.92662348 93.13455091 -151.03162964 103.2352984 -184.62689209 112.35430908 C-187.56227825 113.15298839 -190.49541243 113.95970059 -193.42829895 114.76750183 C-196.45101876 115.59933094 -199.47545187 116.42484723 -202.5 117.25 C-203.54953857 117.53786377 -204.59907715 117.82572754 -205.68041992 118.12231445 C-206.62119385 118.37585693 -207.56196777 118.62939941 -208.53125 118.890625 C-209.73104492 119.21595215 -209.73104492 119.21595215 -210.95507812 119.54785156 C-213 120 -213 120 -216 120 C-215.96970703 120.8657666 -215.93941406 121.7315332 -215.90820312 122.62353516 C-215.79446546 125.90749155 -215.68292264 129.19150858 -215.57275391 132.47558594 C-215.52509873 133.88349248 -215.47662679 135.29137167 -215.42724609 136.69921875 C-214.4875641 163.54727564 -214.4875641 163.54727564 -216 173 C-232.03011845 173.21437008 -247.95312335 172.51764118 -264 172 C-264 141.64 -264 111.28 -264 80 C-249.48 76.7 -234.96 73.4 -220 70 C-211.16556763 67.81008338 -202.35250113 65.602178 -193.5625 63.25 C-192.47875092 62.96207581 -191.39500183 62.67415161 -190.27841187 62.37750244 C-140.43649299 49.10401845 -92.06657585 32.40529964 -44.5625 12.375 C-43.5094165 11.93260986 -42.45633301 11.49021973 -41.37133789 11.03442383 C-36.05748363 8.78487432 -30.80063002 6.45574804 -25.5859375 3.984375 C-24.03410767 3.26435303 -24.03410767 3.26435303 -22.45092773 2.52978516 C-20.50374598 1.62205739 -18.56724112 0.69089762 -16.64477539 -0.26806641 C-9.95630744 -3.35922488 -6.56239034 -3.09750447 0 0 Z " fill="#C95134" transform="translate(560,207)"/>
<path d="M0 0 C2.44746011 0.29532895 4.81937403 0.32109978 7.28222656 0.27539062 C7.28222656 0.93539063 7.28222656 1.59539062 7.28222656 2.27539062 C8.42691406 2.37722656 9.57160156 2.4790625 10.75097656 2.58398438 C15.40072102 3.17133127 19.45351584 4.5889021 23.78222656 6.33789062 C24.55977295 6.64734619 25.33731934 6.95680176 26.13842773 7.27563477 C68.61826068 24.51676457 102.33986719 55.40448514 121.28222656 97.27539062 C121.55905273 97.88560059 121.83587891 98.49581055 122.12109375 99.12451172 C138.95233554 136.93897232 140.0846834 182.52835825 125.83764648 221.33740234 C120.69549121 234.67084463 114.38979327 247.48906017 106.28222656 259.27539062 C105.65574219 260.18804688 105.02925781 261.10070312 104.38378906 262.04101562 C100.40907752 267.66531101 96.136806 272.84926667 91.46191406 277.90429688 C88.78129284 280.82031315 86.23251398 283.83840378 83.69238281 286.87695312 C82.28222656 288.27539062 82.28222656 288.27539062 80.28222656 288.27539062 C80.28222656 288.93539063 80.28222656 289.59539062 80.28222656 290.27539062 C77.2980448 293.05396931 74.0640846 295.52776372 70.85546875 298.04199219 C69.38911465 299.19159196 67.93290368 300.35409722 66.47753906 301.51757812 C32.24075344 328.16726444 -11.01788477 338.80554778 -53.92480469 334.05664062 C-80.00998626 330.74591378 -107.43346773 322.22967692 -128.71777344 306.27539062 C-129.47840088 305.70546387 -129.47840088 305.70546387 -130.25439453 305.12402344 C-138.85112579 298.63620492 -146.93529078 291.72152157 -154.71777344 284.27539062 C-155.65492188 283.3859375 -156.59207031 282.49648438 -157.55761719 281.58007812 C-159.71777344 279.27539062 -159.71777344 279.27539062 -159.71777344 277.27539062 C-160.37777344 277.27539062 -161.03777344 277.27539062 -161.71777344 277.27539062 C-163.42704156 275.2683406 -165.01966367 273.26010052 -166.59277344 271.15039062 C-167.24439453 270.29574219 -167.24439453 270.29574219 -167.90917969 269.42382812 C-170.00435281 266.65543121 -171.99060244 263.86469075 -173.91308594 260.97070312 C-175.59777311 258.26595718 -175.59777311 258.26595718 -177.71777344 256.27539062 C-181.44654018 250.07661279 -184.64156689 243.54130019 -187.90527344 237.08789062 C-188.2380127 236.43546387 -188.57075195 235.78303711 -188.91357422 235.11083984 C-189.23438965 234.47033691 -189.55520508 233.82983398 -189.88574219 233.16992188 C-190.16699951 232.61151611 -190.44825684 232.05311035 -190.73803711 231.4777832 C-192.22381266 228.13784269 -193.45900018 224.7062106 -194.71777344 221.27539062 C-195.44691956 221.27761124 -196.17606567 221.27983185 -196.92730713 221.28211975 C-217.51096169 221.34182961 -238.09410155 221.34462877 -258.67774963 221.28134155 C-260.61748027 221.27568319 -262.55721431 221.27123155 -264.49694824 221.2668457 C-270.85484975 221.25060473 -277.21140336 221.21075047 -283.56872559 221.12179565 C-285.40368346 221.09936839 -287.23876506 221.08533757 -289.07385254 221.08010864 C-305.6507286 221.02015299 -305.6507286 221.02015299 -311.36962891 216.71289062 C-314.98485838 212.85804253 -316.88643327 208.5457701 -317.21777344 203.27539062 C-316.93958598 198.71670582 -315.45881418 194.92202595 -312.71777344 191.27539062 C-306.18257215 185.53434038 -297.1211075 186.12158089 -288.90258789 186.20947266 C-287.64004181 186.21648193 -287.64004181 186.21648193 -286.35198975 186.22363281 C-284.53888428 186.23407131 -282.72579038 186.24671202 -280.912714 186.26135635 C-278.04167611 186.28350694 -275.17070538 186.29750156 -272.29960632 186.30905151 C-264.14162069 186.34253551 -255.98374748 186.38443277 -247.82592773 186.44677734 C-242.82411671 186.48442338 -237.82241761 186.50744396 -232.82048607 186.52108383 C-230.91827444 186.52913201 -229.01607782 186.54273232 -227.11394691 186.56201553 C-224.45741521 186.58849546 -221.80142269 186.59638725 -219.14477539 186.60009766 C-217.97032112 186.61863297 -217.97032112 186.61863297 -216.7721405 186.63754272 C-212.25023206 186.62088837 -209.27251449 186.15208684 -205.71777344 183.27539062 C-204.09258107 179.63805534 -203.71777344 177.29086975 -203.71777344 173.27539062 C-204.37777344 172.94539062 -205.03777344 172.61539063 -205.71777344 172.27539062 C-206.70777344 171.61539063 -207.69777344 170.95539063 -208.71777344 170.27539062 C-208.71777344 169.94539062 -208.71777344 169.61539063 -208.71777344 169.27539062 C-216.43503655 168.02296255 -224.13351138 168.15643202 -231.92700195 168.19360352 C-233.4636017 168.1971642 -235.00020261 168.20024893 -236.5368042 168.20289612 C-239.83302259 168.20942225 -243.12921336 168.21896527 -246.42541695 168.23079109 C-251.6409406 168.24915322 -256.85645774 168.25870088 -262.07200623 168.26670837 C-276.89853824 168.29080888 -291.72502962 168.32675702 -306.55151367 168.37133789 C-314.74978477 168.39591102 -322.94804014 168.41325683 -331.14634269 168.42289728 C-336.32777813 168.42942642 -341.50908314 168.44495546 -346.69047368 168.4672147 C-349.91609976 168.47896962 -353.14169443 168.48231352 -356.36734009 168.48331261 C-357.85925647 168.48545439 -359.35117262 168.49102643 -360.84306145 168.50034332 C-362.8851722 168.51259978 -364.92735115 168.51118959 -366.96949768 168.50917053 C-368.11042657 168.51231294 -369.25135546 168.51545534 -370.42685795 168.51869297 C-377.45745706 167.99891018 -381.80008314 166.07871603 -386.71777344 161.27539062 C-389.63540556 156.61514546 -389.34289046 151.59274404 -388.71777344 146.27539062 C-386.26209792 141.27308865 -382.72074273 137.77687527 -377.71777344 135.27539062 C-375.44469932 135.1490074 -373.16794474 135.08737204 -370.89160156 135.05419922 C-370.18870499 135.04269333 -369.48580841 135.03118744 -368.76161194 135.01933289 C-366.42412734 134.98249995 -364.08661657 134.95290217 -361.74902344 134.92382812 C-360.11348121 134.90068685 -358.47794249 134.87729633 -356.84240723 134.85366821 C-353.39904218 134.80511163 -349.95565248 134.76023245 -346.51220703 134.71777344 C-342.15096362 134.66362583 -337.78993305 134.59963864 -333.42887115 134.5325985 C-330.03974814 134.4818153 -326.65056421 134.43699276 -323.26133728 134.39375687 C-321.65735763 134.37252462 -320.05340116 134.34944076 -318.44947815 134.32429123 C-307.16074477 134.15129132 -295.98248608 134.51868267 -284.71777344 135.27539062 C-284.71777344 134.61539063 -284.71777344 133.95539063 -284.71777344 133.27539062 C-283.62464844 133.46101562 -282.53152344 133.64664063 -281.40527344 133.83789062 C-277.78153211 134.53319742 -277.78153211 134.53319742 -274.71777344 133.27539062 C-274.05777344 133.60539063 -273.39777344 133.93539062 -272.71777344 134.27539062 C-270.70921991 134.37259053 -268.69742644 134.40615596 -266.68652344 134.40820312 C-264.88248047 134.41013672 -264.88248047 134.41013672 -263.04199219 134.41210938 C-261.78 134.40824219 -260.51800781 134.404375 -259.21777344 134.40039062 C-257.95578125 134.40425781 -256.69378906 134.408125 -255.39355469 134.41210938 C-254.19085938 134.41082031 -252.98816406 134.40953125 -251.74902344 134.40820312 C-250.64107422 134.4070752 -249.533125 134.40594727 -248.39160156 134.40478516 C-245.74458828 134.45690531 -245.74458828 134.45690531 -243.71777344 133.27539062 C-241.3833731 133.60116754 -239.05022858 133.93596673 -236.71777344 134.27539062 C-234.04378121 134.334534 -231.40787639 134.35058579 -228.73730469 134.29492188 C-228.00203049 134.28079758 -227.26675629 134.26667328 -226.50920105 134.25212097 C-224.96707712 134.21923093 -223.42502276 134.18291446 -221.88305664 134.14331055 C-219.52649207 134.08780155 -217.17050574 134.05943533 -214.81347656 134.03125 C-213.30887889 133.9958158 -211.80431827 133.95876278 -210.29980469 133.91992188 C-209.59870071 133.91555618 -208.89759674 133.91119049 -208.17524719 133.9066925 C-204.84233065 133.79043064 -202.99085888 133.4802391 -200.29467773 131.45776367 C-198.12087646 128.44930886 -197.91767332 125.94022186 -197.71777344 122.27539062 C-198.43904209 118.96959281 -198.43904209 118.96959281 -201.81228638 117.60818481 C-205.64990731 116.11292182 -209.07519388 115.91950228 -213.20556641 115.95068359 C-213.9217385 115.95181782 -214.63791059 115.95295204 -215.37578487 115.95412064 C-217.73748098 115.96119918 -220.09842987 115.9894376 -222.45996094 116.01757812 C-224.1336754 116.02625306 -225.80739806 116.03345551 -227.48112488 116.03927612 C-231.0219524 116.05393314 -234.56257259 116.07718457 -238.103302 116.1072998 C-243.59513029 116.15304381 -249.0868692 116.17496273 -254.57885742 116.19042969 C-255.48167922 116.19300026 -256.38450102 116.19557083 -257.31468105 116.1982193 C-259.12759116 116.2032675 -260.94050156 116.20820935 -262.75341225 116.21304321 C-265.44850302 116.22068172 -268.1435844 116.22989505 -270.83866882 116.23950195 C-283.31859691 116.28227322 -295.79678828 116.30632335 -308.27520752 116.06988525 C-309.92788478 116.04053063 -311.58070735 116.01836106 -313.23358154 116.00384521 C-327.98768275 115.86621439 -327.98768275 115.86621439 -333.71777344 111.27539062 C-337.43824646 106.96747449 -338.96956131 102.91324942 -338.71777344 97.27539062 C-337.07064435 91.30454768 -333.85928022 87.57037776 -328.71777344 84.27539062 C-325.4342366 83.21703857 -322.39631611 83.15203454 -318.95977783 83.15513611 C-317.78471176 83.15376144 -316.60964569 83.15238678 -315.39897156 83.15097046 C-313.47091423 83.15636337 -313.47091423 83.15636337 -311.50390625 83.16186523 C-310.13387555 83.16214737 -308.7638447 83.16198886 -307.39381409 83.16142273 C-303.67721408 83.16113579 -299.96064635 83.16701591 -296.24405384 83.17399669 C-292.35897294 83.18024733 -288.4738913 83.18083538 -284.58880615 83.18202209 C-277.23303582 83.18513036 -269.87728035 83.19333695 -262.52151656 83.20337158 C-254.14673634 83.21454838 -245.77195541 83.22004712 -237.39716959 83.22506702 C-220.17069561 83.23551997 -202.94423609 83.25310966 -185.71777344 83.27539062 C-185.38777344 82.61539063 -185.05777344 81.95539063 -184.71777344 81.27539062 C-183.39777344 81.93539062 -182.07777344 82.59539062 -180.71777344 83.27539062 C-180.48445312 82.60121094 -180.25113281 81.92703125 -180.01074219 81.23242188 C-178.38791605 77.52100379 -176.28902182 74.31481261 -174.03027344 70.96289062 C-173.5876416 70.3000708 -173.14500977 69.63725098 -172.68896484 68.9543457 C-169.71793104 64.57193653 -166.56686388 60.52340438 -162.89746094 56.69335938 C-161.50458701 55.32656535 -161.50458701 55.32656535 -161.71777344 53.27539062 C-160.72777344 52.94539063 -159.73777344 52.61539063 -158.71777344 52.27539062 C-157.4526514 50.7411924 -157.4526514 50.7411924 -156.34277344 48.90039062 C-154.16682853 45.68235163 -152.13971156 44.16646169 -148.71777344 42.27539062 C-147.68631973 40.96623784 -146.68235178 39.6345692 -145.71777344 38.27539062 C-144.72777344 37.61539063 -143.73777344 36.95539063 -142.71777344 36.27539062 C-141.10588513 35.06647439 -139.49420998 33.85727136 -137.88427734 32.64575195 C-97.20566447 2.23265909 -50.08299576 -8.0879372 0 0 Z M-123.71777344 72.27539062 C-124.44480469 72.92636719 -125.17183594 73.57734375 -125.92089844 74.24804688 C-150.39846561 97.09671119 -161.82881413 130.15936272 -163.94433594 162.76757812 C-164.87894226 198.19765431 -150.8742192 231.70531464 -126.71777344 257.27539062 C-126.02039063 258.03722656 -125.32300781 258.7990625 -124.60449219 259.58398438 C-110.61582556 274.33985393 -90.26230649 285.43626251 -70.84277344 290.96289062 C-70.13604492 291.16551514 -69.42931641 291.36813965 -68.70117188 291.5769043 C-57.14681125 294.70284136 -45.65808889 295.66757631 -33.71777344 295.65039062 C-33.04379517 295.64951447 -32.36981689 295.64863831 -31.67541504 295.6477356 C2.9256575 295.50030813 33.71780747 282.77399185 58.40722656 258.58789062 C83.93702516 232.74238966 96.56572742 199.01797569 96.52880859 163.00366211 C96.20163248 132.22445683 83.7537072 99.78384618 62.28222656 77.27539062 C61.62222656 77.27539062 60.96222656 77.27539062 60.28222656 77.27539062 C59.29222656 75.29539062 59.29222656 75.29539062 58.28222656 73.27539062 C57.62222656 73.27539062 56.96222656 73.27539062 56.28222656 73.27539062 C56.28222656 72.61539063 56.28222656 71.95539063 56.28222656 71.27539062 C52.81483504 68.03871907 49.02712697 65.18274261 45.28222656 62.27539062 C44.52683594 61.68242187 43.77144531 61.08945312 42.99316406 60.47851562 C-7.80794479 22.78157973 -78.57689007 29.71609372 -123.71777344 72.27539062 Z " fill="#C95134" transform="translate(585.7177734375,322.724609375)"/>
<path d="M0 0 C3.6578218 2.03993908 5.66946174 3.50419262 8 7 C9.64158424 15.34052561 9.08746825 24.15142605 9.0166626 32.61987305 C8.97094587 38.97868491 8.99036462 45.33802637 8.9979248 51.69696045 C8.99927894 53.19976746 8.99941667 54.7025762 8.99816895 56.2053833 C8.99580209 60.80484735 9.04675623 65.40103915 9.125 70 C9.12242187 71.16136475 9.11984375 72.32272949 9.1171875 73.51928711 C9.18856424 76.47093831 9.30002898 79.13192729 10 82 C12.70976847 84.6547347 12.70976847 84.6547347 16 86 C22.49077151 92.19380811 25.55928852 98.79960451 26.3125 107.6875 C26.18924367 114.94592842 22.90564233 122.13847501 17.94921875 127.39453125 C11.19491627 132.95769421 4.1859296 135.72109338 -4.5390625 135.30859375 C-7 135 -7 135 -10.6875 134 C-14.70973509 134 -15.209002 134.69986716 -18 137.4375 C-19.84111791 139.46511046 -21.61413349 141.54266662 -23.38012695 143.63574219 C-28.50079702 149.60920944 -34.00189775 155.18804309 -39.56225586 160.74755859 C-41.20000619 162.3875231 -42.82955137 164.03536992 -44.45898438 165.68359375 C-45.50732354 166.73486283 -46.5561347 167.78566147 -47.60546875 168.8359375 C-48.08783493 169.3254892 -48.57020111 169.81504089 -49.06718445 170.31942749 C-51.52669891 172.76240572 -53.72468045 174.78024419 -57 176 C-61.28047646 175.8040627 -64.99549374 174.70315438 -68.5 172.25 C-70.44392982 169.33410527 -70.93105961 167.51595996 -71 164 C-69.09627155 158.48307265 -66.63627581 155.0516129 -62.4375 151.0625 C-61.6959668 150.32290039 -61.6959668 150.32290039 -60.93945312 149.56835938 C-57.2820085 146 -57.2820085 146 -55 146 C-54.74605469 145.40703125 -54.49210937 144.8140625 -54.23046875 144.203125 C-52.86373626 141.75602301 -51.48257018 140.50652046 -49.3125 138.75 C-45.7631374 135.75062872 -42.75572087 132.59436319 -39.8125 129.00390625 C-38 127 -38 127 -35.75 125.27734375 C-33.23672677 123.29203243 -31.60663718 121.78684787 -30 119 C-29.80495686 114.843414 -30.19787838 110.96752106 -30.671875 106.84765625 C-31.33449071 99.07769817 -28.338216 93.8972802 -23.79296875 87.82421875 C-22 86 -22 86 -18.92951965 84.29083252 C-15.74383011 82.28890939 -15.74383011 82.28890939 -15.28520203 79.02923584 C-15.3015419 77.87200012 -15.31788177 76.7147644 -15.3347168 75.52246094 C-15.33839767 74.20719421 -15.34207855 72.89192749 -15.34587097 71.5368042 C-15.37985438 70.10265002 -15.41431557 68.66850709 -15.44921875 67.234375 C-15.46296365 65.75712363 -15.47389175 64.2798436 -15.48213196 62.80255127 C-15.51069209 58.91204516 -15.57435265 55.02291123 -15.64630127 51.13299561 C-15.72764382 46.42802223 -15.77174153 41.72259016 -15.81721973 37.01715469 C-15.8527907 33.35077906 -15.89509362 29.68497646 -15.95939636 26.01898193 C-16.23859924 8.53988014 -16.23859924 8.53988014 -12.6875 4.125 C-8.3465354 0.69260938 -5.65354156 -0.67842499 0 0 Z M-9 102 C-10.42041821 104.84083641 -10.31452272 106.85477278 -10 110 C-8.62716577 112.54002013 -8.62716577 112.54002013 -6 114 C-2.46691896 114.63268453 0.78306111 114.74586577 3.9375 112.8125 C5.33814633 110.42316214 5.86746284 108.78328027 6 106 C4.37844371 102.51365399 3.23546708 101.15697806 0 99 C-4.29387011 99 -5.58866484 99.60284556 -9 102 Z " fill="#C95234" transform="translate(555,382)"/>
<path d="M0 0 C1.98 0.66 3.96 1.32 6 2 C6 2.66 6 3.32 6 4 C3.34087194 5.32956403 1.34312432 5.11984813 -1.63569641 5.11352539 C-2.83444397 5.1134549 -4.03319153 5.1133844 -5.26826477 5.11331177 C-6.60372957 5.10817734 -7.93919405 5.10295589 -9.2746582 5.09765625 C-10.67568916 5.09573784 -12.0767208 5.09427368 -13.47775269 5.0932312 C-16.49906488 5.09006525 -19.52034928 5.08378908 -22.54165077 5.07516479 C-27.31928425 5.06166684 -32.0969084 5.05575315 -36.8745575 5.05102539 C-47.88296335 5.03896644 -58.89134512 5.01693598 -69.8997345 4.99479675 C-79.97954895 4.97461986 -90.05935521 4.95654463 -100.13918561 4.94658184 C-104.88793746 4.94159927 -109.63664666 4.93173857 -114.38538134 4.91815186 C-117.34213411 4.91068752 -120.29888101 4.90737556 -123.25564194 4.9051857 C-125.27881865 4.9024234 -127.30198653 4.89463049 -129.32514954 4.88668823 C-131.13596008 4.88658249 -131.13596008 4.88658249 -132.98335266 4.88647461 C-134.03067723 4.884254 -135.0780018 4.88203339 -136.15706348 4.87974548 C-138.87837196 4.99485521 -141.35103186 5.38525724 -144 6 C-143.67 5.01 -143.34 4.02 -143 3 C-139.83652178 1.73658937 -136.61136472 1.87670454 -133.24200439 1.87974548 C-132.06693832 1.87837082 -130.89187225 1.87699615 -129.68119812 1.87557983 C-127.75314079 1.88097275 -127.75314079 1.88097275 -125.78613281 1.88647461 C-124.41610211 1.88675675 -123.04607126 1.88659823 -121.67604065 1.8860321 C-117.95944065 1.88574516 -114.24287291 1.89162528 -110.5262804 1.89860606 C-106.6411995 1.90485671 -102.75611787 1.90544476 -98.87103271 1.90663147 C-91.51526238 1.90973973 -84.15950691 1.91794633 -76.80374312 1.92798096 C-68.4289629 1.93915776 -60.05418197 1.9446565 -51.67939615 1.94967639 C-34.45292217 1.96012935 -17.22646266 1.97771904 0 2 C0 1.34 0 0.68 0 0 Z " fill="#CF5739" transform="translate(400,404)"/>
<path d="M0 0 C15.2707973 -0.06114059 30.54159711 -0.10193117 45.8125 -0.125 C46.93784275 -0.12671204 48.0631855 -0.12842407 49.22262955 -0.13018799 C85.52765256 -0.17899999 121.73256597 0.26826399 158 2 C158 2.33 158 2.66 158 3 C139.02356933 3.04680482 120.04715045 3.08203032 101.07067394 3.10362434 C92.25876621 3.11391913 83.44689442 3.12794495 74.63500977 3.15087891 C66.95094554 3.17086798 59.26690736 3.1837295 51.58281785 3.18817699 C47.51745617 3.19077505 43.45216899 3.19684385 39.38683128 3.21146011 C35.5529256 3.22513138 31.71912443 3.22920354 27.88519669 3.22621536 C26.48527392 3.22676129 25.08534732 3.23068151 23.68544579 3.23841095 C15.55689763 3.28105442 7.93879036 2.80611869 0 1 C0 0.67 0 0.34 0 0 Z " fill="#CF5133" transform="translate(211,488)"/>
<path d="M0 0 C16.35936278 0.08386759 32.71861532 0.17898893 49.07783127 0.28752708 C56.6736118 0.33765994 64.26938149 0.38410276 71.86523438 0.421875 C78.48537961 0.45480463 85.10544098 0.49464119 91.72549367 0.54279006 C95.23112328 0.56804545 98.73669733 0.58982952 102.24239349 0.60334396 C106.15486075 0.61855587 110.06712413 0.64918724 113.97949219 0.68115234 C115.14330414 0.68331253 116.30711609 0.68547272 117.50619507 0.68769836 C118.57187714 0.69886185 119.6375592 0.71002533 120.73553467 0.7215271 C122.1237549 0.72982324 122.1237549 0.72982324 123.54001999 0.73828697 C126.12530382 1.01333086 127.77399457 1.69102282 130 3 C129.67 3.66 129.34 4.32 129 5 C128.16209427 4.83701416 127.32418854 4.67402832 126.46089172 4.50610352 C122.79193128 3.96957307 119.3333582 3.88722453 115.62573242 3.90234375 C114.90972052 3.90377286 114.19370861 3.90520197 113.45599937 3.90667439 C111.08911775 3.91238264 108.72232366 3.92504885 106.35546875 3.9375 C104.68009085 3.9423863 103.0047112 3.94670329 101.32933044 3.95048523 C97.78238886 3.95897043 94.23546667 3.96985007 90.6885376 3.98251343 C81.56451956 4.01353905 72.44047038 4.01790335 63.31640625 4.01953125 C61.97712444 4.01980788 61.97712444 4.01980788 60.61078644 4.0200901 C47.12847373 4.02073221 33.64704624 4.00905164 20.16690063 3.73754883 C18.48045139 3.70434344 16.79389219 3.67629781 15.10726929 3.65356445 C12.8547164 3.6214059 10.60356052 3.57030248 8.3515625 3.51171875 C7.15354004 3.48553467 5.95551758 3.45935059 4.72119141 3.43237305 C3.82319824 3.28968994 2.92520508 3.14700684 2 3 C1.34 2.01 0.68 1.02 0 0 Z " fill="#C63D22" transform="translate(257,435)"/>
<path d="M0 0 C0.87884354 0.00960754 1.75768707 0.01921509 2.66316223 0.02911377 C5.54709395 0.06190397 8.43086455 0.10231141 11.31469727 0.14282227 C13.3225092 0.16714294 15.33032698 0.19098551 17.33815002 0.21437073 C22.60711352 0.27701788 27.87597276 0.34613884 33.14483643 0.41662598 C38.52758054 0.48748495 43.9103982 0.55219661 49.29321289 0.61743164 C59.84342395 0.74619413 70.39353507 0.88179857 80.94360352 1.02172852 C80.61360352 1.68172852 80.28360352 2.34172852 79.94360352 3.02172852 C48.26360352 3.02172852 16.58360352 3.02172852 -16.05639648 3.02172852 C-16.05639648 2.36172852 -16.05639648 1.70172852 -16.05639648 1.02172852 C-10.64266795 0.10164159 -5.48372566 -0.0869579 0 0 Z " fill="#C53216" transform="translate(296.056396484375,508.978271484375)"/>
<path d="M0 0 C0.76119141 0.04769531 1.52238281 0.09539062 2.30664062 0.14453125 C4.14212149 0.2599703 5.97734308 0.37952076 7.8125 0.5 C7.8125 1.16 7.8125 1.82 7.8125 2.5 C-22.2175 2.5 -52.2475 2.5 -83.1875 2.5 C-80.53164512 -0.15585488 -79.24645542 0.22842101 -75.53540039 0.18115234 C-74.34979019 0.16128265 -73.16417999 0.14141296 -71.94264221 0.12094116 C-70.65317184 0.10938995 -69.36370148 0.09783875 -68.03515625 0.0859375 C-66.69671963 0.06721058 -65.35829462 0.04763604 -64.0198822 0.0272522 C-60.48468044 -0.02420337 -56.94943929 -0.06371125 -53.4140625 -0.10089111 C-49.85601641 -0.14052977 -46.29814461 -0.19201874 -42.74023438 -0.2421875 C-10.33388223 -0.68583613 -10.33388223 -0.68583613 0 0 Z " fill="#C3371E" transform="translate(292.1875,457.5)"/>
<path d="M0 0 C0.65407333 0.01936111 1.30814667 0.03872223 1.98204041 0.05867004 C4.13568897 0.12373553 6.288992 0.19671189 8.44238281 0.26977539 C9.93880725 0.31653337 11.43524724 0.36279628 12.93170166 0.40858459 C16.86424392 0.53024145 20.79653922 0.65861515 24.7288208 0.78839111 C28.74389099 0.9197086 32.75915847 1.04466936 36.77441406 1.17016602 C44.64831892 1.41720198 52.52197421 1.67133457 60.39550781 1.92993164 C60.39550781 2.25993164 60.39550781 2.58993164 60.39550781 2.92993164 C37.29550781 2.92993164 14.19550781 2.92993164 -9.60449219 2.92993164 C-9.93449219 2.26993164 -10.26449219 1.60993164 -10.60449219 0.92993164 C-7.00997596 -0.21231729 -3.75212514 -0.11989874 0 0 Z " fill="#D7694A" transform="translate(308.6044921875,488.070068359375)"/>
<path d="M0 0 C0.33 0 0.66 0 1 0 C1.14497311 3.92853991 1.28725774 7.85716791 1.42724609 11.78588867 C1.49831315 13.76551158 1.57139769 15.74506173 1.64453125 17.72460938 C1.7777329 21.48279889 1.89449667 25.24093647 2 29 C2.03351563 30.10005371 2.06703125 31.20010742 2.1015625 32.33349609 C2.11960937 33.32043457 2.13765625 34.30737305 2.15625 35.32421875 C2.18428711 36.61525513 2.18428711 36.61525513 2.21289062 37.93237305 C2 40 2 40 0 42 C-1.67159744 40.32840256 -1.1278649 38.29217054 -1.13894653 36.06053162 C-1.1369223 35.36895462 -1.13489807 34.67737762 -1.1328125 33.96484375 C-1.13424759 32.89672203 -1.13424759 32.89672203 -1.13571167 31.80702209 C-1.13639397 30.29297803 -1.13453626 28.77893107 -1.13037109 27.26489258 C-1.12507834 24.97144779 -1.13028554 22.67820383 -1.13671875 20.38476562 C-1.1360569 18.91145791 -1.13477354 17.43815031 -1.1328125 15.96484375 C-1.13483673 15.28743637 -1.13686096 14.61002899 -1.13894653 13.91209412 C-1.1162803 9.18886289 -0.65528863 4.66738598 0 0 Z " fill="#C73D21" transform="translate(343,328)"/>
<path d="M0 0 C0.33 0 0.66 0 1 0 C1 11.88 1 23.76 1 36 C0.01 36.495 0.01 36.495 -1 37 C-3.34595484 24.65089372 -1.81068534 12.30296023 0 0 Z " fill="#CA4327" transform="translate(541,421)"/>
<path d="M0 0 C7.63096841 2.45660053 15.08971911 5.28854073 22.5625 8.1875 C23.76197266 8.65091797 24.96144531 9.11433594 26.19726562 9.59179688 C29.1322277 10.72602525 32.0664464 11.86213485 35 13 C35 13.66 35 14.32 35 15 C29.84123287 14.3386196 24.7705188 13.09902827 20 11 C19.67 10.34 19.34 9.68 19 9 C17.33968654 8.63634068 15.67121204 8.30974054 14 8 C11.91930598 7.25746734 9.85662735 6.46296525 7.8125 5.625 C6.76707031 5.20476562 5.72164062 4.78453125 4.64453125 4.3515625 C2 3 2 3 0 0 Z " fill="#CD4A2C" transform="translate(561,260)"/>
<path d="M0 0 C0.33 0 0.66 0 1 0 C1 2.64 1 5.28 1 8 C-1.79173055 8.02690104 -4.58320348 8.04679053 -7.375 8.0625 C-8.56609375 8.07506836 -8.56609375 8.07506836 -9.78125 8.08789062 C-15.7734375 8.11328125 -15.7734375 8.11328125 -18 7 C-20.0307477 6.84588894 -22.06606421 6.75017547 -24.1015625 6.68359375 C-25.31328125 6.64169922 -26.525 6.59980469 -27.7734375 6.55664062 C-29.04445313 6.51732422 -30.31546875 6.47800781 -31.625 6.4375 C-32.90375 6.39431641 -34.1825 6.35113281 -35.5 6.30664062 C-38.66655348 6.20030114 -41.83318753 6.09827167 -45 6 C-45 5.67 -45 5.34 -45 5 C-30.15 5 -15.3 5 0 5 C0 3.35 0 1.7 0 0 Z " fill="#CC3F22" transform="translate(343,372)"/>
<path d="M0 0 C0.33 0 0.66 0 1 0 C1 9.9 1 19.8 1 30 C0.34 30.33 -0.32 30.66 -1 31 C-1.22894898 27.52187589 -1.42931154 24.04264128 -1.625 20.5625 C-1.68945312 19.58861328 -1.75390625 18.61472656 -1.8203125 17.61132812 C-2.15702749 11.31896675 -1.64922226 6.08701498 0 0 Z " fill="#C83E23" transform="translate(541,390)"/>
<path d="M0 0 C3 1 3 1 4.90234375 4.24609375 C5.59248857 5.63745793 6.27023215 7.03502085 6.9375 8.4375 C7.28868896 9.16163086 7.63987793 9.88576172 8.00170898 10.63183594 C15.40418366 26.04436147 15.40418366 26.04436147 14 31 C13.23816406 29.24236328 13.23816406 29.24236328 12.4609375 27.44921875 C8.95410301 19.42383144 5.43103854 11.5513643 1.03125 3.96875 C0 2 0 2 0 0 Z " fill="#C9482A" transform="translate(696,403)"/>
<path d="M0 0 C4.23302172 1.4815576 7.55612935 3.66692401 11.25 6.1875 C15.25879456 8.80856893 18.38830438 10.60089233 23.3125 10 C24.529375 9.67 25.74625 9.34 27 9 C27 9.66 27 10.32 27 11 C24.75 12.6875 24.75 12.6875 22 14 C17.26487349 13.30417216 13.36730354 10.51256572 9.3125 8.125 C8.1359082 7.45404297 8.1359082 7.45404297 6.93554688 6.76953125 C6.18982422 6.33253906 5.44410156 5.89554688 4.67578125 5.4453125 C3.99427002 5.04844238 3.31275879 4.65157227 2.6105957 4.24267578 C1 3 1 3 0 0 Z " fill="#CB472A" transform="translate(531,797)"/>
<path d="M0 0 C-1.14402973 3.43208919 -1.72584845 3.74964967 -4.67578125 5.59375 C-5.42150391 6.06683594 -6.16722656 6.53992188 -6.93554688 7.02734375 C-7.71994141 7.51332031 -8.50433594 7.99929688 -9.3125 8.5 C-10.85103512 9.46751917 -12.38881973 10.43623301 -13.92578125 11.40625 C-14.61067627 11.83228516 -15.29557129 12.25832031 -16.0012207 12.69726562 C-18.0677933 13.98132196 -18.0677933 13.98132196 -20.00463867 15.72460938 C-22 17 -22 17 -24.25 16.6875 C-24.8275 16.460625 -25.405 16.23375 -26 16 C-22.6225837 13.71547825 -19.24118802 11.4369895 -15.85595703 9.1640625 C-14.70445012 8.38967816 -13.55405231 7.61364198 -12.40478516 6.8359375 C-10.7545417 5.71963822 -9.09998645 4.60972145 -7.4453125 3.5 C-6.45031738 2.8296875 -5.45532227 2.159375 -4.43017578 1.46875 C-2 0 -2 0 0 0 Z " fill="#CD4B2C" transform="translate(595,782)"/>
<path d="M0 0 C3.38199559 1.12733186 3.6517662 1.58342509 5.41015625 4.4921875 C5.84263672 5.19730469 6.27511719 5.90242187 6.72070312 6.62890625 C7.16349609 7.37011719 7.60628906 8.11132812 8.0625 8.875 C8.94904848 10.33083287 9.83576107 11.78656582 10.72265625 13.2421875 C11.30672241 14.21454346 11.30672241 14.21454346 11.90258789 15.20654297 C12.89550916 16.82923477 13.94475357 18.41713035 15 20 C14.67 20.99 14.34 21.98 14 23 C0 4.30964467 0 4.30964467 0 0 Z " fill="#CA482A" transform="translate(398,608)"/>
<path d="M0 0 C19.305 0.495 19.305 0.495 39 1 C39 1.33 39 1.66 39 2 C34.7321081 2.1939254 30.46391863 2.37236084 26.19482422 2.53710938 C24.74575896 2.59513646 23.29685012 2.6572297 21.84814453 2.72363281 C7.02843217 3.39772035 7.02843217 3.39772035 0 1 C0 0.67 0 0.34 0 0 Z " fill="#D26041" transform="translate(525,617)"/>
<path d="M0 0 C-1.61218003 4.83654009 -5.83412899 6.85476884 -9.875 9.75 C-10.70386719 10.36488281 -11.53273438 10.97976563 -12.38671875 11.61328125 C-13.18464844 12.18949219 -13.98257813 12.76570312 -14.8046875 13.359375 C-15.53671387 13.89014648 -16.26874023 14.42091797 -17.02294922 14.96777344 C-17.67537598 15.3084082 -18.32780273 15.64904297 -19 16 C-19.99 15.67 -20.98 15.34 -22 15 C-16.66666667 11 -11.33333333 7 -6 3 C-5.30100586 2.44481689 -4.60201172 1.88963379 -3.88183594 1.31762695 C-2 0 -2 0 0 0 Z " fill="#CC4A2C" transform="translate(620,764)"/>
<path d="M0 0 C0.33 0 0.66 0 1 0 C0.88482579 2.35500948 0.75812022 4.70849073 0.625 7.0625 C0.55539062 8.37347656 0.48578125 9.68445313 0.4140625 11.03515625 C0.00194564 14.98136957 -0.79756567 18.24117073 -2 22 C-2.66 21.67 -3.32 21.34 -4 21 C-4.41088577 13.74101807 -3.28483093 6.56966186 0 0 Z " fill="#CB492B" transform="translate(745,489)"/>
<path d="M0 0 C0.33 0 0.66 0 1 0 C1.33 4.62 1.66 9.24 2 14 C2.33 14 2.66 14 3 14 C3 17.96 3 21.92 3 26 C2.01 25.67 1.02 25.34 0 25 C0 26.65 0 28.3 0 30 C-0.33 30 -0.66 30 -1 30 C-0.67 20.1 -0.34 10.2 0 0 Z " fill="#D36A4B" transform="translate(759,346)"/>
<path d="M0 0 C0.66 0 1.32 0 2 0 C2.23710693 0.50974365 2.47421387 1.0194873 2.71850586 1.54467773 C3.78925593 3.84334017 4.86333195 6.14043294 5.9375 8.4375 C6.31068359 9.23994141 6.68386719 10.04238281 7.06835938 10.86914062 C7.42607422 11.63291016 7.78378906 12.39667969 8.15234375 13.18359375 C8.48226318 13.89056396 8.81218262 14.59753418 9.15209961 15.32592773 C9.88534557 16.9891159 9.88534557 16.9891159 11 18 C11.04063832 19.66617115 11.042721 21.33388095 11 23 C8.10674103 19.42221604 5.98032867 15.53772791 3.8125 11.5 C3.44447266 10.83613281 3.07644531 10.17226563 2.69726562 9.48828125 C0.81460426 5.98841726 0 4.05400821 0 0 Z " fill="#CB482A" transform="translate(380,573)"/>
<path d="M0 0 C0.66 0 1.32 0 2 0 C3.32066755 2.39164168 4.63161792 4.78780216 5.9375 7.1875 C6.31068359 7.86103516 6.68386719 8.53457031 7.06835938 9.22851562 C9.00554868 12.80620758 10.49827956 15.8986345 11 20 C7.51079722 16.8581736 5.45034642 13.57020193 3.25 9.4375 C2.63640625 8.30183594 2.0228125 7.16617188 1.390625 5.99609375 C0 3 0 3 0 0 Z " fill="#CB4A2C" transform="translate(433,544)"/>
<path d="M0 0 C0.5259375 0.23074219 1.051875 0.46148437 1.59375 0.69921875 C0.72492188 1.158125 -0.14390625 1.61703125 -1.0390625 2.08984375 C-2.76769531 3.01023437 -2.76769531 3.01023437 -4.53125 3.94921875 C-6.23667969 4.85414063 -6.23667969 4.85414063 -7.9765625 5.77734375 C-11.2557968 7.61491012 -14.31148 9.57332811 -17.40625 11.69921875 C-18.06625 11.36921875 -18.72625 11.03921875 -19.40625 10.69921875 C-16.27533303 7.23832768 -12.99519095 5.11406617 -8.90625 2.88671875 C-7.22015625 1.94892578 -7.22015625 1.94892578 -5.5 0.9921875 C-2.40625 -0.30078125 -2.40625 -0.30078125 0 0 Z " fill="#CB492C" transform="translate(481.40625,336.30078125)"/>
<path d="M0 0 C0.33 0.66 0.66 1.32 1 2 C0.22729492 3.67993164 0.22729492 3.67993164 -1.01953125 5.66015625 C-1.46490234 6.37107422 -1.91027344 7.08199219 -2.36914062 7.81445312 C-2.84544922 8.55630859 -3.32175781 9.29816406 -3.8125 10.0625 C-4.27720703 10.80822266 -4.74191406 11.55394531 -5.22070312 12.32226562 C-8.72940199 17.864701 -8.72940199 17.864701 -11 19 C-10.442212 14.43471973 -8.48306492 11.06292528 -6.0625 7.25 C-5.70220703 6.66089844 -5.34191406 6.07179688 -4.97070312 5.46484375 C-2.2675047 1.13375235 -2.2675047 1.13375235 0 0 Z " fill="#CC4829" transform="translate(697,617)"/>
<path d="M0 0 C0.5887793 0.20592773 1.17755859 0.41185547 1.78417969 0.62402344 C-0.2769625 2.06350341 -2.33966843 3.50064915 -4.40332031 4.93652344 C-4.98146484 5.34064453 -5.55960938 5.74476563 -6.15527344 6.16113281 C-9.44152675 8.44480037 -12.75414459 10.60960197 -16.21582031 12.62402344 C-16.21582031 11.63402344 -16.21582031 10.64402344 -16.21582031 9.62402344 C-14.00238676 7.71834 -11.8451446 6.04521549 -9.46582031 4.37402344 C-8.83160156 3.90222656 -8.19738281 3.43042969 -7.54394531 2.94433594 C-2.75536722 -0.46752595 -2.75536722 -0.46752595 0 0 Z " fill="#CC4729" transform="translate(586.2158203125,732.3759765625)"/>
<path d="M0 0 C4.45991062 0.53518927 7.06274922 2.19595189 10.625 4.875 C12.03652344 5.92300781 12.03652344 5.92300781 13.4765625 6.9921875 C15.4698223 8.57815582 17.26261199 10.14600877 19 12 C15.48701811 12 14.58261929 11.27849625 11.75 9.3125 C10.96238281 8.76851562 10.17476562 8.22453125 9.36328125 7.6640625 C8.58339844 7.11492188 7.80351563 6.56578125 7 6 C6.29230469 5.51273438 5.58460938 5.02546875 4.85546875 4.5234375 C3.21456355 3.3804852 1.60386762 2.1943695 0 1 C0 0.67 0 0.34 0 0 Z " fill="#CA4628" transform="translate(516,733)"/>
<path d="M0 0 C0.33 0.66 0.66 1.32 1 2 C1.66 2 2.32 2 3 2 C3.9534764 3.36210914 4.89642641 4.73295111 5.78125 6.140625 C7.63635933 8.9708559 9.74295282 11.60238529 11.828125 14.265625 C13 16 13 16 13 18 C12.34 18 11.68 18 11 18 C9.21793851 15.97479535 7.56990662 13.95286908 5.9375 11.8125 C5.24817383 10.9452832 5.24817383 10.9452832 4.54492188 10.06054688 C2.00874002 6.76462772 0.39368162 4.26622324 0 0 Z " fill="#CA482B" transform="translate(413,582)"/>
<path d="M0 0 C0.99 0.33 1.98 0.66 3 1 C1.54822932 3.64963085 0.08901138 6.29464509 -1.375 8.9375 C-1.7875 9.69224609 -2.2 10.44699219 -2.625 11.22460938 C-3.02460937 11.94326172 -3.42421875 12.66191406 -3.8359375 13.40234375 C-4.20251465 14.06741943 -4.5690918 14.73249512 -4.94677734 15.41772461 C-6 17 -6 17 -8 18 C-7.39733215 13.49272353 -5.63400206 10.1412037 -3.4375 6.1875 C-2.9434668 5.2912793 -2.9434668 5.2912793 -2.43945312 4.37695312 C-1.63226733 2.91466002 -0.81695083 1.4568601 0 0 Z " fill="#CB492A" transform="translate(669,544)"/>
<path d="M0 0 C4.15670299 1.56728146 6.56090336 4.60787011 9.3125 7.9375 C10.01342773 8.74477539 10.01342773 8.74477539 10.72851562 9.56835938 C12.05078125 11.15234375 12.05078125 11.15234375 14 14 C13.67 14.99 13.34 15.98 13 17 C11.01524404 14.73384576 9.03711912 12.46245847 7.0625 10.1875 C6.21655273 9.22360352 6.21655273 9.22360352 5.35351562 8.24023438 C4.81533203 7.61826172 4.27714844 6.99628906 3.72265625 6.35546875 C3.22515869 5.78465576 2.72766113 5.21384277 2.21508789 4.62573242 C1 3 1 3 0 0 Z " fill="#C94629" transform="translate(424,646)"/>
<path d="M0 0 C4.42749632 0.59600912 6.22686049 2.20344378 9.25 5.4375 C10.25 8.625 10.25 8.625 10.25 11.4375 C9.59 12.0975 8.93 12.7575 8.25 13.4375 C8.06824219 12.88320313 7.88648438 12.32890625 7.69921875 11.7578125 C7.44785156 11.03335937 7.19648437 10.30890625 6.9375 9.5625 C6.69386719 8.84320313 6.45023438 8.12390625 6.19921875 7.3828125 C5.28664453 5.09755095 5.28664453 5.09755095 2.25 3.4375 C-0.07387947 3.04362212 -2.40793749 2.70263915 -4.75 2.4375 C-2.75 0.4375 -2.75 0.4375 0 0 Z " fill="#CB472B" transform="translate(552.75,478.5625)"/>
<path d="M0 0 C-0.33 0.66 -0.66 1.32 -1 2 C-6.94 2 -12.88 2 -19 2 C-19 1.34 -19 0.68 -19 0 C-12.5510809 -1.31909709 -6.51244208 -0.69508823 0 0 Z " fill="#C93C1F" transform="translate(299,510)"/>
<path d="M0 0 C0.56460938 0.23074219 1.12921875 0.46148438 1.7109375 0.69921875 C0.42377103 1.70500464 -0.86894908 2.70368673 -2.1640625 3.69921875 C-2.88335938 4.25609375 -3.60265625 4.81296875 -4.34375 5.38671875 C-6.2890625 6.69921875 -6.2890625 6.69921875 -8.2890625 6.69921875 C-8.2890625 7.35921875 -8.2890625 8.01921875 -8.2890625 8.69921875 C-9.9390625 9.35921875 -11.5890625 10.01921875 -13.2890625 10.69921875 C-11.8219452 7.14185368 -9.9184206 5.25726708 -6.9140625 2.88671875 C-6.14320313 2.26152344 -5.37234375 1.63632812 -4.578125 0.9921875 C-2.2890625 -0.30078125 -2.2890625 -0.30078125 0 0 Z " fill="#CC4A2C" transform="translate(602.2890625,720.30078125)"/>
<path d="M0 0 C0.66 0.33 1.32 0.66 2 1 C-2.95 7.435 -2.95 7.435 -8 14 C-8.33 13.01 -8.66 12.02 -9 11 C-7.12890625 8.30078125 -7.12890625 8.30078125 -4.5625 5.3125 C-3.71816406 4.31863281 -2.87382813 3.32476563 -2.00390625 2.30078125 C-1.01197266 1.16189453 -1.01197266 1.16189453 0 0 Z " fill="#CC4628" transform="translate(658,564)"/>
<path d="M0 0 C-5.3363834 2.82863975 -10.92410633 4.37974335 -17 4 C-17 3.34 -17 2.68 -17 2 C-11.16200408 0.30167391 -6.06892629 -0.25287193 0 0 Z " fill="#CC482A" transform="translate(522,324)"/>
<path d="M0 0 C0.33 0 0.66 0 1 0 C1.66 6.27 2.32 12.54 3 19 C2.67 18.34 2.34 17.68 2 17 C1.34 17 0.68 17 0 17 C-0.89316269 11.06390334 -0.97040422 5.93024803 0 0 Z " fill="#D26243" transform="translate(422,496)"/>
<path d="M0 0 C5.6143991 1.56448671 10.86810338 3.16395187 16 6 C16 6.33 16 6.66 16 7 C10.36382567 6.53031881 5.78582459 5.09327687 1 2 C0.67 1.34 0.34 0.68 0 0 Z " fill="#CC4628" transform="translate(597,365)"/>
<path d="M0 0 C4.62 0 9.24 0 14 0 C11.53530619 2.46469381 10.4068526 2.38543894 7 2.6875 C5.6696875 2.81705078 5.6696875 2.81705078 4.3125 2.94921875 C2 3 2 3 0 2 C0 1.34 0 0.68 0 0 Z " fill="#CD492C" transform="translate(547,655)"/>
<path d="M0 0 C3.10609978 2.07073319 3.94458127 3.24999997 5.6875 6.4375 C6.12449219 7.21996094 6.56148438 8.00242187 7.01171875 8.80859375 C8 11 8 11 8 14 C4.32770991 10.62546316 1.91051157 7.62544907 0 3 C0 2.01 0 1.02 0 0 Z " fill="#CB492C" transform="translate(402,565)"/>
<path d="M0 0 C0.99 0.33 1.98 0.66 3 1 C1.824375 1.86625 1.824375 1.86625 0.625 2.75 C-3.47067698 6.72965214 -3.42271952 12.59768863 -4 18 C-4.33 18 -4.66 18 -5 18 C-5.86140345 6.17005924 -5.86140345 6.17005924 -2.5 2.25 C-1.675 1.5075 -0.85 0.765 0 0 Z " fill="#C93B1E" transform="translate(203,461)"/>
<path d="M0 0 C0.66 0 1.32 0 2 0 C4.37706418 3.66539668 4.05094317 6.49056835 3.625 10.75 C3.51414062 11.92046875 3.40328125 13.0909375 3.2890625 14.296875 C3.19367187 15.18890625 3.09828125 16.0809375 3 17 C2.67 17 2.34 17 2 17 C1.93941406 16.19175781 1.87882813 15.38351562 1.81640625 14.55078125 C1.73261719 13.48214844 1.64882813 12.41351563 1.5625 11.3125 C1.48128906 10.25675781 1.40007813 9.20101563 1.31640625 8.11328125 C1.03548319 5.34913703 0.59843148 2.71054259 0 0 Z " fill="#CE4C2D" transform="translate(576,477)"/>
<path d="M0 0 C1.32 0 2.64 0 4 0 C2.63629701 2.99220268 1.05091917 5.29026529 -1.125 7.75 C-1.93324219 8.67039062 -1.93324219 8.67039062 -2.7578125 9.609375 C-3.16773438 10.06828125 -3.57765625 10.5271875 -4 11 C-4.33 10.01 -4.66 9.02 -5 8 C-4.00390625 6.2109375 -4.00390625 6.2109375 -2.5625 4.375 C-0.75529905 2.39605586 -0.75529905 2.39605586 0 0 Z " fill="#CA4A2B" transform="translate(424,376)"/>
<path d="M0 0 C2.31 0 4.62 0 7 0 C7 0.66 7 1.32 7 2 C5.02 2.66 3.04 3.32 1 4 C0.67 6.64 0.34 9.28 0 12 C-0.33 12 -0.66 12 -1 12 C-1.02712066 10.56260487 -1.04645067 9.12506137 -1.0625 7.6875 C-1.07410156 6.88699219 -1.08570313 6.08648437 -1.09765625 5.26171875 C-1 3 -1 3 0 0 Z " fill="#CA472A" transform="translate(343,324)"/>
<path d="M0 0 C1.8871875 0.0309375 1.8871875 0.0309375 3.8125 0.0625 C-0.84035818 3.16440545 -5.60282676 4.40096504 -11.1875 4.0625 C-7.47611183 1.11898524 -4.747758 -0.0778321 0 0 Z " fill="#CC4728" transform="translate(347.1875,275.9375)"/>
<path d="M0 0 C0.99 0.33 1.98 0.66 3 1 C0.03 4.3 -2.94 7.6 -6 11 C-6.33 10.01 -6.66 9.02 -7 8 C-5.56640625 5.95703125 -5.56640625 5.95703125 -3.5625 3.8125 C-2.90378906 3.09707031 -2.24507812 2.38164063 -1.56640625 1.64453125 C-1.04949219 1.10183594 -0.53257812 0.55914063 0 0 Z " fill="#CB4426" transform="translate(656,669)"/>
<path d="M0 0 C0.66 1.32 1.32 2.64 2 4 C-1.42789254 6.74231403 -2.64589854 7 -7 7 C-4.69 4.69 -2.38 2.38 0 0 Z M2 1 C2.99 1.495 2.99 1.495 4 2 C3.01 2.495 3.01 2.495 2 3 C2 2.34 2 1.68 2 1 Z " fill="#D06242" transform="translate(496,530)"/>
<path d="M0 0 C3.43772727 3.43772727 3.97127774 7.10960984 4.125 11.875 C4.08375 12.90625 4.0425 13.9375 4 15 C0.59141414 11.59141414 0.06991606 6.67798535 -0.125 2 C-0.08375 1.34 -0.0425 0.68 0 0 Z " fill="#C84628" transform="translate(423,513)"/>
<path d="M0 0 C0.66 0 1.32 0 2 0 C0.58707905 4.8274799 -1.42974154 8.7162359 -4 13 C-5.0169313 10.34501768 -5.13022151 9.30844625 -4.00390625 6.640625 C-3.52824219 5.85171875 -3.05257812 5.0628125 -2.5625 4.25 C-2.08941406 3.45078125 -1.61632812 2.6515625 -1.12890625 1.828125 C-0.75636719 1.22484375 -0.38382813 0.6215625 0 0 Z " fill="#CB4325" transform="translate(710,592)"/>
<path d="M0 0 C-0.33 0.99 -0.66 1.98 -1 3 C-4.3 3 -7.6 3 -11 3 C-11.33 2.34 -11.66 1.68 -12 1 C-8.0186217 -0.3271261 -4.14954773 -0.06915913 0 0 Z " fill="#D25C3E" transform="translate(310,488)"/>
<path d="M0 0 C-0.66 0 -1.32 0 -2 0 C-2 0.99 -2 1.98 -2 3 C-4.31 4.32 -6.62 5.64 -9 7 C-7.53913043 1.4 -7.53913043 1.4 -5.0625 -0.4375 C-3 -1 -3 -1 0 0 Z " fill="#CE5939" transform="translate(211,459)"/>
<path d="M0 0 C0.99 0 1.98 0 3 0 C4.421875 1.42578125 4.421875 1.42578125 5.75 3.3125 C6.19859375 3.92738281 6.6471875 4.54226563 7.109375 5.17578125 C8 7 8 7 7 10 C5.83043409 8.52312468 4.66441854 7.04343707 3.5 5.5625 C2.8503125 4.73878906 2.200625 3.91507812 1.53125 3.06640625 C0 1 0 1 0 0 Z " fill="#C84226" transform="translate(681,382)"/>
<path d="M0 0 C1.32 0.33 2.64 0.66 4 1 C0.535 3.97 0.535 3.97 -3 7 C-3.66 6.67 -4.32 6.34 -5 6 C-3.35 4.02 -1.7 2.04 0 0 Z " fill="#CB472A" transform="translate(610,712)"/>
<path d="M0 0 C1 3 1 3 0.07421875 5.04296875 C-0.61220703 6.10451172 -0.61220703 6.10451172 -1.3125 7.1875 C-1.76238281 7.90292969 -2.21226562 8.61835937 -2.67578125 9.35546875 C-3.11277344 9.89816406 -3.54976562 10.44085937 -4 11 C-4.66 11 -5.32 11 -6 11 C-4.54955729 6.89041233 -2.48889248 3.56741255 0 0 Z " fill="#CB4729" transform="translate(737,636)"/>
<path d="M0 0 C0.95465783 2.16967689 1.14401212 3.56328793 0.3984375 5.82421875 C-0.35870385 7.5684743 -1.17609198 9.28627131 -2 11 C-2.66 11 -3.32 11 -4 11 C-3.39301257 6.87248551 -1.96189209 3.6678852 0 0 Z " fill="#CD4B2C" transform="translate(759,593)"/>
<path d="M0 0 C2.96052484 3.36423277 3.92289822 6.69159287 5 11 C4.34 11 3.68 11 3 11 C0.84694043 7.14243493 -0.39253254 4.44870215 0 0 Z " fill="#CC4A2C" transform="translate(333,576)"/>
<path d="M0 0 C4.43458973 1.3937282 6.87378374 3.60582235 10 7 C5.1746274 6.58639663 3.13078071 4.5780351 0 1 C0 0.67 0 0.34 0 0 Z " fill="#CC4528" transform="translate(620,376)"/>
<path d="M0 0 C1.32 0.33 2.64 0.66 4 1 C1.36 2.98 -1.28 4.96 -4 7 C-4.66 6.67 -5.32 6.34 -6 6 C-4 4 -2 2 0 0 Z " fill="#CA4427" transform="translate(455,350)"/>
<path d="M0 0 C-2.64 1.65 -5.28 3.3 -8 5 C-8.66 4.34 -9.32 3.68 -10 3 C-4.5 -1.125 -4.5 -1.125 0 0 Z " fill="#CA4226" transform="translate(560,752)"/>
<path d="M0 0 C0.66 0.33 1.32 0.66 2 1 C-0.31 3.31 -2.62 5.62 -5 8 C-5.66 7.34 -6.32 6.68 -7 6 C-4.69 4.02 -2.38 2.04 0 0 Z " fill="#C94628" transform="translate(442,361)"/>
<path d="M0 0 C3.181798 1.06059933 6.0173094 2.47551369 9 4 C4.99799622 5.60080151 1.95443764 4.29279692 -2 3 C-1.34 2.67 -0.68 2.34 0 2 C0 1.34 0 0.68 0 0 Z " fill="#D05A3A" transform="translate(744,320)"/>
<path d="M0 0 C1.43931117 0.45261358 2.87638999 0.91232979 4.3125 1.375 C5.11300781 1.63023437 5.91351562 1.88546875 6.73828125 2.1484375 C9 3 9 3 12 5 C4.61538462 4.50769231 4.61538462 4.50769231 1.5 1.9375 C1.005 1.298125 0.51 0.65875 0 0 Z " fill="#CC482A" transform="translate(599,275)"/>
<path d="M0 0 C3.81684226 1.55500981 6.19195732 4.03595495 9 7 C5.13066838 6.42676569 2.84777943 4.61046448 0 2 C0 1.34 0 0.68 0 0 Z " fill="#CA4427" transform="translate(469,753)"/>
<path d="M0 0 C2.93200474 2.85276137 5.64315404 5.65079784 8 9 C7.01 9 6.02 9 5 9 C0 3.76744186 0 3.76744186 0 0 Z " fill="#CA4427" transform="translate(404,690)"/>
<path d="M0 0 C0.99 0.33 1.98 0.66 3 1 C2.01 1.33 1.02 1.66 0 2 C-1.20882096 4.00016466 -1.20882096 4.00016466 -2 6 C-3.32 5.67 -4.64 5.34 -6 5 C-1.60546875 0.99609375 -1.60546875 0.99609375 0 0 Z " fill="#CD492B" transform="translate(637,587)"/>
<path d="M0 0 C0.66 0 1.32 0 2 0 C2.96070434 2.88211302 3.10581883 4.69850044 3.0625 7.6875 C3.05347656 8.49574219 3.04445313 9.30398438 3.03515625 10.13671875 C3.02355469 10.75160156 3.01195312 11.36648438 3 12 C2.67 12 2.34 12 2 12 C0.86235649 7.73383684 0 4.43513689 0 0 Z " fill="#CA4628" transform="translate(714,446)"/>
<path d="M0 0 C4.39158329 1.4638611 4.87947433 3.97831338 7 8 C6.01 8.495 6.01 8.495 5 9 C4.16094435 7.87926138 3.32892169 6.75325453 2.5 5.625 C2.0359375 4.99851562 1.571875 4.37203125 1.09375 3.7265625 C0 2 0 2 0 0 Z " fill="#CC4729" transform="translate(651,403)"/>
<path d="M0 0 C7.75 0.875 7.75 0.875 10 2 C10 2.66 10 3.32 10 4 C8.51882199 3.71872579 7.04006751 3.42466268 5.5625 3.125 C4.73878906 2.96257812 3.91507813 2.80015625 3.06640625 2.6328125 C2.38449219 2.42398438 1.70257812 2.21515625 1 2 C0.67 1.34 0.34 0.68 0 0 Z " fill="#CB492A" transform="translate(646,243)"/>
<path d="M0 0 C4.21878192 -0.19622241 7.17010894 0.19769832 11 2 C11 2.66 11 3.32 11 4 C7.0507432 3.44894091 3.65079826 2.61064629 0 1 C0 0.67 0 0.34 0 0 Z " fill="#C84427" transform="translate(575,216)"/>
<path d="M0 0 C3.99455527 0.61454696 6.74466336 2.70646737 10 5 C9.01 5.33 8.02 5.66 7 6 C5.17578125 5.0390625 5.17578125 5.0390625 3.3125 3.625 C2.68988281 3.16351562 2.06726563 2.70203125 1.42578125 2.2265625 C0.95527344 1.82179688 0.48476563 1.41703125 0 1 C0 0.67 0 0.34 0 0 Z " fill="#CB4829" transform="translate(496,718)"/>
<path d="M0 0 C3.79588866 0.54226981 5.47211993 2.20127563 8 5 C7.67 5.66 7.34 6.32 7 7 C5.83040013 6.02433888 4.66438823 5.044375 3.5 4.0625 C2.8503125 3.51722656 2.200625 2.97195313 1.53125 2.41015625 C1.0259375 1.94480469 0.520625 1.47945312 0 1 C0 0.67 0 0.34 0 0 Z " fill="#C84225" transform="translate(475,700)"/>
<path d="M0 0 C3.16115776 1.36983503 3.9927092 1.9890638 6 5 C5.67 5.99 5.34 6.98 5 8 C0 2.25 0 2.25 0 0 Z " fill="#C84022" transform="translate(415,634)"/>
<path d="M0 0 C3.40424844 1.13474948 4.21653709 1.96811304 6 5 C5.67 5.99 5.34 6.98 5 8 C0 2.25 0 2.25 0 0 Z " fill="#C94426" transform="translate(445,565)"/>
<path d="M0 0 C0.66 0 1.32 0 2 0 C1.67 3.63 1.34 7.26 1 11 C0.67 11 0.34 11 0 11 C-1.28571429 3.57142857 -1.28571429 3.57142857 0 0 Z " fill="#D05838" transform="translate(792,483)"/>
<path d="M0 0 C2.31 0.33 4.62 0.66 7 1 C5.35 2.65 3.7 4.3 2 6 C0 3 0 3 0 0 Z " fill="#D15A3D" transform="translate(544,480)"/>
<path d="M0 0 C5.75 -0.125 5.75 -0.125 8 1 C8 1.66 8 2.32 8 3 C5.69 3 3.38 3 1 3 C0.67 2.01 0.34 1.02 0 0 Z " fill="#D25D3E" transform="translate(549,382)"/>
<path d="M0 0 C5.75 0.875 5.75 0.875 8 2 C8 2.66 8 3.32 8 4 C2.25 3.125 2.25 3.125 0 2 C0 1.34 0 0.68 0 0 Z " fill="#CE4A2D" transform="translate(612,280)"/>
<path d="M0 0 C0.66 0 1.32 0 2 0 C0.70700306 2.88437779 -0.65941363 4.87219421 -3 7 C-3.66 6.67 -4.32 6.34 -5 6 C-3.38405168 3.95880212 -1.7143618 1.95927063 0 0 Z " fill="#CC4526" transform="translate(695,693)"/>
<path d="M0 0 C1.9375 0.625 1.9375 0.625 4 2 C4.75 5.125 4.75 5.125 5 8 C2.20127563 5.47211993 0.54226981 3.79588866 0 0 Z " fill="#CC4427" transform="translate(379,491)"/>
<path d="M0 0 C2.31 0.33 4.62 0.66 7 1 C6 4 6 4 4 6 C3.67 5.01 3.34 4.02 3 3 C1.50014391 1.33289654 1.50014391 1.33289654 0 0 Z " fill="#D15F40" transform="translate(384,439)"/>
<path d="M0 0 C-1.13474948 3.40424844 -1.96811304 4.21653709 -5 6 C-5.99 5.67 -6.98 5.34 -8 5 C-2.25 0 -2.25 0 0 0 Z " fill="#CC4729" transform="translate(477,381)"/>
<path d="M0 0 C-3.00617269 3.00617269 -5.82381598 2.59585316 -10 3 C-7.29536552 -0.8183075 -4.37912428 -0.24787496 0 0 Z " fill="#C94021" transform="translate(374,270)"/>
<path d="M0 0 C2.97 0.33 5.94 0.66 9 1 C9 1.66 9 2.32 9 3 C2.25 2.25 2.25 2.25 0 0 Z " fill="#CC4529" transform="translate(684,256)"/>
<path d="M0 0 C1.32 0.33 2.64 0.66 4 1 C3.01 1.495 3.01 1.495 2 2 C1.34 1.34 0.68 0.68 0 0 Z " fill="#D96F4E" transform="translate(688,309)"/>
<path d="M0 0 C0.66 0.66 1.32 1.32 2 2 C1.01 2.495 1.01 2.495 0 3 C0 2.01 0 1.02 0 0 Z " fill="#D67353" transform="translate(401,691)"/>
<path d="M0 0 C4 1 4 1 4 1 Z " fill="#D77958" transform="translate(207,456)"/>
<path d="M0 0 C3 1 3 1 3 1 Z " fill="#D36E50" transform="translate(539,616)"/>
<path d="" fill="#D36E4F" transform="translate(0,0)"/>
<path d="M0 0 C0.66 0.66 1.32 1.32 2 2 C1.34 2 0.68 2 0 2 C0 1.34 0 0.68 0 0 Z " fill="#D66E4E" transform="translate(404,574)"/>
<path d="M0 0 C0.66 0 1.32 0 2 0 C1.67 0.66 1.34 1.32 1 2 C0.67 1.34 0.34 0.68 0 0 Z " fill="#D66D4D" transform="translate(394,556)"/>
<path d="" fill="#D76D4F" transform="translate(0,0)"/>
<path d="M0 0 C0.99 0.495 0.99 0.495 2 1 C1.01 1.495 1.01 1.495 0 2 C0 1.34 0 0.68 0 0 Z " fill="#D96F4F" transform="translate(692,310)"/>
<path d="M0 0 C3 1 3 1 3 1 Z " fill="#D97050" transform="translate(463,293)"/>
<path d="M0 0 C2 1 2 1 2 1 Z " fill="#D67252" transform="translate(448,741)"/>
<path d="M0 0 C2 1 2 1 2 1 Z " fill="#D37152" transform="translate(432,725)"/>
<path d="M0 0 C2 1 2 1 2 1 Z " fill="#D67253" transform="translate(368,653)"/>
<path d="" fill="#D57151" transform="translate(0,0)"/>
<path d="" fill="#D56D4F" transform="translate(0,0)"/>
<path d="" fill="#D66E4E" transform="translate(0,0)"/>
<path d="" fill="#D66D4D" transform="translate(0,0)"/>
<path d="M0 0 C2 1 2 1 2 1 Z " fill="#D67354" transform="translate(276,542)"/>
<path d="M0 0 C2 1 2 1 2 1 Z " fill="#DB7656" transform="translate(545,517)"/>
<path d="M0 0 C2 1 2 1 2 1 Z " fill="#D87354" transform="translate(521,488)"/>
<path d="" fill="#D87051" transform="translate(0,0)"/>
<path d="M0 0 C2 1 2 1 2 1 Z " fill="#DC7353" transform="translate(308,439)"/>
<path d="M0 0 C2 1 2 1 2 1 Z " fill="#D97050" transform="translate(659,422)"/>
<path d="" fill="#D77251" transform="translate(0,0)"/>
<path d="" fill="#D47151" transform="translate(0,0)"/>
<path d="M0 0 C2 1 2 1 2 1 Z " fill="#DA704F" transform="translate(606,372)"/>
<path d="M0 0 C2 1 2 1 2 1 Z " fill="#DA7152" transform="translate(745,325)"/>
<path d="" fill="#D96E4F" transform="translate(0,0)"/>
<path d="M0 0 C2 1 2 1 2 1 Z " fill="#D86D4D" transform="translate(618,285)"/>
<path d="M0 0 C2 1 2 1 2 1 Z " fill="#D77452" transform="translate(352,272)"/>
<path d="M0 0 C2 1 2 1 2 1 Z " fill="#D57554" transform="translate(480,232)"/>
<path d="" fill="#AE8E64" transform="translate(0,0)"/>
<path d="" fill="#B18F63" transform="translate(0,0)"/>
<path d="" fill="#AB8F63" transform="translate(0,0)"/>
<path d="" fill="#A88C5F" transform="translate(0,0)"/>
<path d="" fill="#AD8F64" transform="translate(0,0)"/>
<path d="" fill="#D67253" transform="translate(0,0)"/>
<path d="" fill="#D87252" transform="translate(0,0)"/>
<path d="" fill="#D66D4E" transform="translate(0,0)"/>
<path d="" fill="#D56C4B" transform="translate(0,0)"/>
<path d="" fill="#D16E4E" transform="translate(0,0)"/>
<path d="" fill="#D67254" transform="translate(0,0)"/>
<path d="" fill="#D9724F" transform="translate(0,0)"/>
<path d="" fill="#D67353" transform="translate(0,0)"/>
<path d="" fill="#D77654" transform="translate(0,0)"/>
<path d="" fill="#D66E4D" transform="translate(0,0)"/>
<path d="" fill="#D57252" transform="translate(0,0)"/>
<path d="" fill="#D26D4D" transform="translate(0,0)"/>
<path d="" fill="#D77051" transform="translate(0,0)"/>
<path d="" fill="#D77150" transform="translate(0,0)"/>
<path d="" fill="#D56C4C" transform="translate(0,0)"/>
<path d="" fill="#D66E4B" transform="translate(0,0)"/>
<path d="" fill="#D66D4A" transform="translate(0,0)"/>
<path d="" fill="#DD7454" transform="translate(0,0)"/>
<path d="" fill="#D56D4C" transform="translate(0,0)"/>
<path d="" fill="#D8704F" transform="translate(0,0)"/>
<path d="" fill="#D77457" transform="translate(0,0)"/>
<path d="" fill="#D47050" transform="translate(0,0)"/>
<path d="" fill="#D36D4F" transform="translate(0,0)"/>
<path d="" fill="#D57352" transform="translate(0,0)"/>
<path d="" fill="#D37353" transform="translate(0,0)"/>
<path d="" fill="#D66F4F" transform="translate(0,0)"/>
<path d="" fill="#D46A49" transform="translate(0,0)"/>
<path d="" fill="#D27454" transform="translate(0,0)"/>
<path d="" fill="#D76F4B" transform="translate(0,0)"/>
<path d="" fill="#D67253" transform="translate(0,0)"/>
<path d="" fill="#D67452" transform="translate(0,0)"/>
<path d="" fill="#D67353" transform="translate(0,0)"/>
<path d="" fill="#D47453" transform="translate(0,0)"/>
<path d="" fill="#D77551" transform="translate(0,0)"/>
<path d="" fill="#D46F4E" transform="translate(0,0)"/>
<path d="" fill="#D76F4E" transform="translate(0,0)"/>
<path d="" fill="#D27252" transform="translate(0,0)"/>
<path d="" fill="#D77251" transform="translate(0,0)"/>
<path d="" fill="#D67053" transform="translate(0,0)"/>
<path d="" fill="#DB7451" transform="translate(0,0)"/>
<path d="" fill="#D57050" transform="translate(0,0)"/>
<path d="" fill="#D97352" transform="translate(0,0)"/>
<path d="" fill="#D57252" transform="translate(0,0)"/>
<path d="" fill="#D96F4F" transform="translate(0,0)"/>
<path d="" fill="#DB7153" transform="translate(0,0)"/>
<path d="" fill="#D77453" transform="translate(0,0)"/>
<path d="" fill="#D7704F" transform="translate(0,0)"/>
<path d="" fill="#D57353" transform="translate(0,0)"/>
<path d="" fill="#D86F50" transform="translate(0,0)"/>
<path d="" fill="#D57453" transform="translate(0,0)"/>
<path d="" fill="#D57654" transform="translate(0,0)"/>
<path d="" fill="#D77150" transform="translate(0,0)"/>
<path d="" fill="#D87050" transform="translate(0,0)"/>
<path d="" fill="#D26C4F" transform="translate(0,0)"/>
<path d="" fill="#D56D4D" transform="translate(0,0)"/>
<path d="" fill="#D77454" transform="translate(0,0)"/>
<path d="" fill="#D5714E" transform="translate(0,0)"/>
<path d="" fill="#D66D4F" transform="translate(0,0)"/>
<path d="" fill="#DA7351" transform="translate(0,0)"/>
<path d="" fill="#D67251" transform="translate(0,0)"/>
<path d="" fill="#AE9367" transform="translate(0,0)"/>
<path d="" fill="#D57354" transform="translate(0,0)"/>
<path d="" fill="#D77252" transform="translate(0,0)"/>
<path d="" fill="#D76E4E" transform="translate(0,0)"/>
<path d="" fill="#D66E4F" transform="translate(0,0)"/>
<path d="" fill="#D8704E" transform="translate(0,0)"/>
<path d="" fill="#D77353" transform="translate(0,0)"/>
<path d="" fill="#DA7051" transform="translate(0,0)"/>
<path d="" fill="#D77251" transform="translate(0,0)"/>
<path d="" fill="#D97351" transform="translate(0,0)"/>
<path d="" fill="#D67151" transform="translate(0,0)"/>
<path d="" fill="#D87050" transform="translate(0,0)"/>
<path d="" fill="#D66D4E" transform="translate(0,0)"/>
<path d="" fill="#D96F4D" transform="translate(0,0)"/>
<path d="" fill="#D7704E" transform="translate(0,0)"/>
<path d="" fill="#D87252" transform="translate(0,0)"/>
<path d="" fill="#D87252" transform="translate(0,0)"/>
<path d="" fill="#D7704F" transform="translate(0,0)"/>
<path d="" fill="#DA7352" transform="translate(0,0)"/>
<path d="" fill="#DC7657" transform="translate(0,0)"/>
<path d="" fill="#D67051" transform="translate(0,0)"/>
<path d="" fill="#D87052" transform="translate(0,0)"/>
<path d="" fill="#D96F51" transform="translate(0,0)"/>
<path d="" fill="#D47353" transform="translate(0,0)"/>
<path d="" fill="#D36D4D" transform="translate(0,0)"/>
<path d="" fill="#D57252" transform="translate(0,0)"/>
<path d="" fill="#D67151" transform="translate(0,0)"/>
<path d="" fill="#DB7352" transform="translate(0,0)"/>
<path d="" fill="#D97252" transform="translate(0,0)"/>
<path d="" fill="#D67354" transform="translate(0,0)"/>
<path d="" fill="#D67252" transform="translate(0,0)"/>
<path d="" fill="#D57252" transform="translate(0,0)"/>
<path d="" fill="#D77050" transform="translate(0,0)"/>
<path d="" fill="#D87050" transform="translate(0,0)"/>
<path d="" fill="#D77252" transform="translate(0,0)"/>
<path d="" fill="#D86E4E" transform="translate(0,0)"/>
<path d="" fill="#D67352" transform="translate(0,0)"/>
<path d="" fill="#D67150" transform="translate(0,0)"/>
<path d="" fill="#D77152" transform="translate(0,0)"/>
<path d="" fill="#D16B4C" transform="translate(0,0)"/>
<path d="" fill="#D86D4E" transform="translate(0,0)"/>
<path d="" fill="#D67257" transform="translate(0,0)"/>
<path d="" fill="#D67353" transform="translate(0,0)"/>
<path d="" fill="#D27356" transform="translate(0,0)"/>
<path d="" fill="#D4704F" transform="translate(0,0)"/>
<path d="" fill="#DA7755" transform="translate(0,0)"/>
<path d="" fill="#D87151" transform="translate(0,0)"/>
<path d="" fill="#D36F4F" transform="translate(0,0)"/>
<path d="" fill="#D77253" transform="translate(0,0)"/>
<path d="" fill="#D66D4C" transform="translate(0,0)"/>
<path d="" fill="#D56E4F" transform="translate(0,0)"/>
<path d="" fill="#D8714F" transform="translate(0,0)"/>
<path d="" fill="#DB7656" transform="translate(0,0)"/>
<path d="" fill="#D87152" transform="translate(0,0)"/>
<path d="" fill="#D66F53" transform="translate(0,0)"/>
<path d="" fill="#D66F50" transform="translate(0,0)"/>
<path d="" fill="#D87250" transform="translate(0,0)"/>
<path d="" fill="#D67452" transform="translate(0,0)"/>
<path d="" fill="#D87252" transform="translate(0,0)"/>
<path d="" fill="#D77253" transform="translate(0,0)"/>
<path d="" fill="#D57555" transform="translate(0,0)"/>
<path d="" fill="#DC7553" transform="translate(0,0)"/>
<path d="" fill="#D97653" transform="translate(0,0)"/>
<path d="" fill="#D77154" transform="translate(0,0)"/>
<path d="" fill="#DC7958" transform="translate(0,0)"/>
<path d="" fill="#D87453" transform="translate(0,0)"/>
<path d="" fill="#D67B59" transform="translate(0,0)"/>
<path d="" fill="#D37B57" transform="translate(0,0)"/>
<path d="" fill="#D67554" transform="translate(0,0)"/>
<path d="" fill="#DB7655" transform="translate(0,0)"/>
<path d="" fill="#D97554" transform="translate(0,0)"/>
<path d="" fill="#DA7755" transform="translate(0,0)"/>
<path d="" fill="#DA7B5A" transform="translate(0,0)"/>
<path d="" fill="#D77856" transform="translate(0,0)"/>
<path d="" fill="#D87959" transform="translate(0,0)"/>
<path d="" fill="#D87252" transform="translate(0,0)"/>
<path d="" fill="#D77150" transform="translate(0,0)"/>
<path d="" fill="#D56F4F" transform="translate(0,0)"/>
<path d="" fill="#B59469" transform="translate(0,0)"/>
<path d="" fill="#D86C4D" transform="translate(0,0)"/>
<path d="" fill="#D86D4E" transform="translate(0,0)"/>
<path d="" fill="#D66D4B" transform="translate(0,0)"/>
<path d="" fill="#D97353" transform="translate(0,0)"/>
<path d="" fill="#D77354" transform="translate(0,0)"/>
<path d="" fill="#D66F51" transform="translate(0,0)"/>
<path d="" fill="#DA7252" transform="translate(0,0)"/>
<path d="" fill="#D57050" transform="translate(0,0)"/>
<path d="" fill="#D76E4D" transform="translate(0,0)"/>
<path d="" fill="#DA714E" transform="translate(0,0)"/>
<path d="" fill="#D67353" transform="translate(0,0)"/>
<path d="" fill="#D77956" transform="translate(0,0)"/>
<path d="" fill="#D97151" transform="translate(0,0)"/>
<path d="" fill="#D86F4F" transform="translate(0,0)"/>
<path d="" fill="#D97152" transform="translate(0,0)"/>
<path d="" fill="#D77553" transform="translate(0,0)"/>
<path d="" fill="#D6714F" transform="translate(0,0)"/>
<path d="" fill="#DA7151" transform="translate(0,0)"/>
<path d="" fill="#DA7455" transform="translate(0,0)"/>
<path d="" fill="#DD7654" transform="translate(0,0)"/>
<path d="" fill="#DB7453" transform="translate(0,0)"/>
<path d="" fill="#DA7654" transform="translate(0,0)"/>
<path d="" fill="#D86D4D" transform="translate(0,0)"/>
<path d="" fill="#DA7556" transform="translate(0,0)"/>
<path d="" fill="#DB7151" transform="translate(0,0)"/>
<path d="" fill="#D87151" transform="translate(0,0)"/>
<path d="" fill="#D67050" transform="translate(0,0)"/>
<path d="" fill="#D67150" transform="translate(0,0)"/>
<path d="" fill="#D97252" transform="translate(0,0)"/>
<path d="" fill="#D86E4C" transform="translate(0,0)"/>
<path d="" fill="#D46E4E" transform="translate(0,0)"/>
<path d="" fill="#D97050" transform="translate(0,0)"/>
<path d="" fill="#D37151" transform="translate(0,0)"/>
<path d="" fill="#D87252" transform="translate(0,0)"/>
<path d="" fill="#DB7250" transform="translate(0,0)"/>
<path d="" fill="#DA7454" transform="translate(0,0)"/>
<path d="" fill="#D86F4E" transform="translate(0,0)"/>
<path d="" fill="#DB7150" transform="translate(0,0)"/>
<path d="" fill="#D96E4E" transform="translate(0,0)"/>
<path d="" fill="#D97453" transform="translate(0,0)"/>
<path d="" fill="#D7704F" transform="translate(0,0)"/>
<path d="" fill="#DA7150" transform="translate(0,0)"/>
<path d="" fill="#DA704F" transform="translate(0,0)"/>
<path d="" fill="#D96F4C" transform="translate(0,0)"/>
<path d="" fill="#D87050" transform="translate(0,0)"/>
<path d="" fill="#D77453" transform="translate(0,0)"/>
<path d="" fill="#DC7452" transform="translate(0,0)"/>
<path d="" fill="#AD9366" transform="translate(0,0)"/>
<path d="" fill="#BF9268" transform="translate(0,0)"/>
<path d="" fill="#D86F4E" transform="translate(0,0)"/>
<path d="" fill="#D66F50" transform="translate(0,0)"/>
<path d="" fill="#D77151" transform="translate(0,0)"/>
<path d="" fill="#D76F4E" transform="translate(0,0)"/>
<path d="" fill="#D76C4E" transform="translate(0,0)"/>
<path d="" fill="#D36D4F" transform="translate(0,0)"/>
<path d="" fill="#D46D4E" transform="translate(0,0)"/>
<path d="" fill="#D66D4D" transform="translate(0,0)"/>
<path d="" fill="#D47C57" transform="translate(0,0)"/>
<path d="" fill="#D7714E" transform="translate(0,0)"/>
<path d="" fill="#D76E4E" transform="translate(0,0)"/>
<path d="" fill="#D97050" transform="translate(0,0)"/>
<path d="" fill="#DA6F4F" transform="translate(0,0)"/>
<path d="" fill="#DB7250" transform="translate(0,0)"/>
<path d="" fill="#D97552" transform="translate(0,0)"/>
<path d="" fill="#DB7250" transform="translate(0,0)"/>
<path d="" fill="#D46949" transform="translate(0,0)"/>
<path d="" fill="#DA714E" transform="translate(0,0)"/>
<path d="" fill="#DA724F" transform="translate(0,0)"/>
<path d="" fill="#DA7151" transform="translate(0,0)"/>
<path d="" fill="#D77251" transform="translate(0,0)"/>
<path d="" fill="#DA6F50" transform="translate(0,0)"/>
<path d="" fill="#D86C4C" transform="translate(0,0)"/>
<path d="" fill="#D86E4D" transform="translate(0,0)"/>
<path d="" fill="#D96F4F" transform="translate(0,0)"/>
<path d="" fill="#D86E4E" transform="translate(0,0)"/>
<path d="" fill="#D8714F" transform="translate(0,0)"/>
<path d="" fill="#D96D4E" transform="translate(0,0)"/>
<path d="" fill="#D9704E" transform="translate(0,0)"/>
<path d="" fill="#DB6E4D" transform="translate(0,0)"/>
<path d="" fill="#DA7050" transform="translate(0,0)"/>
<path d="" fill="#D67653" transform="translate(0,0)"/>
<path d="" fill="#D96D4B" transform="translate(0,0)"/>
<path d="" fill="#D67D58" transform="translate(0,0)"/>
<path d="" fill="#D77755" transform="translate(0,0)"/>
<path d="" fill="#D77756" transform="translate(0,0)"/>
<path d="" fill="#D57955" transform="translate(0,0)"/>
<path d="" fill="#D8704E" transform="translate(0,0)"/>
<path d="" fill="#D87654" transform="translate(0,0)"/>
<path d="" fill="#D67553" transform="translate(0,0)"/>
<path d="" fill="#D67454" transform="translate(0,0)"/>
<path d="" fill="#D97756" transform="translate(0,0)"/>
<path d="" fill="#DA6F4F" transform="translate(0,0)"/>
<path d="" fill="#DB7150" transform="translate(0,0)"/>
<path d="" fill="#D67351" transform="translate(0,0)"/>
<path d="" fill="#D96E4B" transform="translate(0,0)"/>
<path d="" fill="#D67451" transform="translate(0,0)"/>
<path d="" fill="#D77452" transform="translate(0,0)"/>
<path d="" fill="#D87552" transform="translate(0,0)"/>
<path d="" fill="#D57050" transform="translate(0,0)"/>
<path d="" fill="#D87250" transform="translate(0,0)"/>
<path d="" fill="#DA704E" transform="translate(0,0)"/>
<path d="" fill="#D97150" transform="translate(0,0)"/>
<path d="" fill="#D77452" transform="translate(0,0)"/>
<path d="" fill="#D66F50" transform="translate(0,0)"/>
<path d="" fill="#D56F4F" transform="translate(0,0)"/>
<path d="" fill="#DA714F" transform="translate(0,0)"/>
<path d="" fill="#D57151" transform="translate(0,0)"/>
<path d="" fill="#D57250" transform="translate(0,0)"/>
<path d="" fill="#B59568" transform="translate(0,0)"/>
<path d="" fill="#D56F4F" transform="translate(0,0)"/>
<path d="" fill="#D77451" transform="translate(0,0)"/>
<path d="" fill="#D36B4D" transform="translate(0,0)"/>
<path d="" fill="#D87653" transform="translate(0,0)"/>
<path d="" fill="#D77250" transform="translate(0,0)"/>
<path d="" fill="#D77451" transform="translate(0,0)"/>
<path d="" fill="#D47353" transform="translate(0,0)"/>
<path d="" fill="#B59368" transform="translate(0,0)"/>
<path d="" fill="#A99063" transform="translate(0,0)"/>
<path d="" fill="#B29467" transform="translate(0,0)"/>
<path d="" fill="#B59468" transform="translate(0,0)"/>
</svg>
